<mxfile host="app.diagrams.net" agent="Mozilla/5.0 (Macintosh; Intel Mac OS X 10_15_7) AppleWebKit/537.36 (KHTML, like Gecko) Chrome/130.0.0.0 Safari/537.36" version="24.8.4">
  <diagram name="第 1 页" id="FeHUB5jkjmQC6uhi9gAO">
    <mxGraphModel dx="934" dy="1319" grid="1" gridSize="10" guides="1" tooltips="1" connect="1" arrows="1" fold="1" page="1" pageScale="1" pageWidth="827" pageHeight="1169" math="0" shadow="0">
      <root>
        <mxCell id="0" />
        <mxCell id="1" parent="0" />
        <mxCell id="ezjURIExCmXeSgJhfd-B-1" value="" style="endArrow=none;html=1;rounded=0;sketch=1;hachureGap=4;jiggle=2;curveFitting=1;fontFamily=Helvetica;" edge="1" parent="1">
          <mxGeometry width="50" height="50" relative="1" as="geometry">
            <mxPoint x="80" y="120" as="sourcePoint" />
            <mxPoint x="760" y="120" as="targetPoint" />
          </mxGeometry>
        </mxCell>
        <mxCell id="ezjURIExCmXeSgJhfd-B-2" value="" style="endArrow=none;html=1;rounded=0;sketch=1;hachureGap=4;jiggle=2;curveFitting=1;fontFamily=Helvetica;" edge="1" parent="1">
          <mxGeometry width="50" height="50" relative="1" as="geometry">
            <mxPoint x="80" y="1040" as="sourcePoint" />
            <mxPoint x="80" y="120" as="targetPoint" />
          </mxGeometry>
        </mxCell>
        <mxCell id="ezjURIExCmXeSgJhfd-B-3" value="" style="endArrow=none;html=1;rounded=0;sketch=1;hachureGap=4;jiggle=2;curveFitting=1;fontFamily=Helvetica;" edge="1" parent="1">
          <mxGeometry width="50" height="50" relative="1" as="geometry">
            <mxPoint x="80" y="1040" as="sourcePoint" />
            <mxPoint x="760" y="1040" as="targetPoint" />
          </mxGeometry>
        </mxCell>
        <mxCell id="ezjURIExCmXeSgJhfd-B-4" value="" style="endArrow=none;html=1;rounded=0;sketch=1;hachureGap=4;jiggle=2;curveFitting=1;fontFamily=Helvetica;" edge="1" parent="1">
          <mxGeometry width="50" height="50" relative="1" as="geometry">
            <mxPoint x="760" y="1040" as="sourcePoint" />
            <mxPoint x="760" y="120" as="targetPoint" />
          </mxGeometry>
        </mxCell>
        <mxCell id="ezjURIExCmXeSgJhfd-B-5" value="&lt;span style=&quot;color: rgb(28, 31, 33); font-size: 14px; text-align: start; background-color: rgb(248, 250, 252);&quot;&gt;扫码登录可以分为三个阶段：&lt;/span&gt;&lt;span style=&quot;color: rgb(28, 31, 33); font-size: 14px; text-align: start; background-color: rgb(248, 250, 252);&quot;&gt;待扫描、已扫描待确认、已确认&lt;/span&gt;&lt;span style=&quot;color: rgb(28, 31, 33); font-size: 14px; text-align: start; background-color: rgb(248, 250, 252);&quot;&gt;。&lt;/span&gt;" style="text;html=1;align=center;verticalAlign=middle;whiteSpace=wrap;rounded=0;fontFamily=Helvetica;" vertex="1" parent="1">
          <mxGeometry x="184" y="20" width="460" height="30" as="geometry" />
        </mxCell>
        <mxCell id="ezjURIExCmXeSgJhfd-B-6" value="扫码登录原理" style="text;html=1;align=center;verticalAlign=middle;whiteSpace=wrap;rounded=0;fontFamily=Helvetica;" vertex="1" parent="1">
          <mxGeometry x="334" y="70" width="160" height="30" as="geometry" />
        </mxCell>
        <mxCell id="ezjURIExCmXeSgJhfd-B-8" value="" style="verticalLabelPosition=bottom;html=1;verticalAlign=top;align=center;strokeColor=none;fillColor=#00BEF2;shape=mxgraph.azure.mobile;pointerEvents=1;hachureGap=4;fontFamily=Helvetica;shadow=1;" vertex="1" parent="1">
          <mxGeometry x="160" y="160" width="46" height="70" as="geometry" />
        </mxCell>
        <mxCell id="ezjURIExCmXeSgJhfd-B-9" value="" style="shape=mxgraph.cisco.computers_and_peripherals.pc;html=1;pointerEvents=1;dashed=0;fillColor=#036897;strokeColor=#ffffff;strokeWidth=2;verticalLabelPosition=bottom;verticalAlign=top;align=center;outlineConnect=0;hachureGap=4;fontFamily=Helvetica;shadow=1;" vertex="1" parent="1">
          <mxGeometry x="390" y="165" width="78" height="70" as="geometry" />
        </mxCell>
        <mxCell id="ezjURIExCmXeSgJhfd-B-10" value="" style="image;html=1;image=img/lib/clip_art/computers/Server_Rack_128x128.png;hachureGap=4;fontFamily=Helvetica;shadow=1;" vertex="1" parent="1">
          <mxGeometry x="620" y="160" width="80" height="80" as="geometry" />
        </mxCell>
        <mxCell id="ezjURIExCmXeSgJhfd-B-11" value="" style="endArrow=none;html=1;rounded=0;hachureGap=4;fontFamily=Helvetica;entryX=0.5;entryY=1;entryDx=0;entryDy=0;entryPerimeter=0;" edge="1" parent="1" source="ezjURIExCmXeSgJhfd-B-54" target="ezjURIExCmXeSgJhfd-B-8">
          <mxGeometry width="50" height="50" relative="1" as="geometry">
            <mxPoint x="180" y="1040" as="sourcePoint" />
            <mxPoint x="480" y="480" as="targetPoint" />
          </mxGeometry>
        </mxCell>
        <mxCell id="ezjURIExCmXeSgJhfd-B-12" value="" style="endArrow=none;html=1;rounded=0;hachureGap=4;fontFamily=Helvetica;entryX=0.5;entryY=1;entryDx=0;entryDy=0;entryPerimeter=0;" edge="1" parent="1" source="ezjURIExCmXeSgJhfd-B-58">
          <mxGeometry width="50" height="50" relative="1" as="geometry">
            <mxPoint x="428" y="1040" as="sourcePoint" />
            <mxPoint x="430.5" y="230" as="targetPoint" />
          </mxGeometry>
        </mxCell>
        <mxCell id="ezjURIExCmXeSgJhfd-B-13" value="" style="endArrow=none;html=1;rounded=0;hachureGap=4;fontFamily=Helvetica;entryX=0.5;entryY=1;entryDx=0;entryDy=0;entryPerimeter=0;" edge="1" parent="1" source="ezjURIExCmXeSgJhfd-B-65">
          <mxGeometry width="50" height="50" relative="1" as="geometry">
            <mxPoint x="659" y="1040" as="sourcePoint" />
            <mxPoint x="661.5" y="240" as="targetPoint" />
          </mxGeometry>
        </mxCell>
        <mxCell id="ezjURIExCmXeSgJhfd-B-14" value="" style="endArrow=classic;html=1;rounded=0;hachureGap=4;fontFamily=Helvetica;flowAnimation=1;" edge="1" parent="1">
          <mxGeometry width="50" height="50" relative="1" as="geometry">
            <mxPoint x="430" y="300" as="sourcePoint" />
            <mxPoint x="660" y="300" as="targetPoint" />
          </mxGeometry>
        </mxCell>
        <mxCell id="ezjURIExCmXeSgJhfd-B-16" value="" style="endArrow=classic;html=1;rounded=0;hachureGap=4;fontFamily=Helvetica;flowAnimation=1;entryX=1.182;entryY=0.88;entryDx=0;entryDy=0;entryPerimeter=0;" edge="1" parent="1" target="ezjURIExCmXeSgJhfd-B-65">
          <mxGeometry width="50" height="50" relative="1" as="geometry">
            <mxPoint x="660" y="320" as="sourcePoint" />
            <mxPoint x="660" y="370" as="targetPoint" />
            <Array as="points">
              <mxPoint x="730" y="320" />
              <mxPoint x="730" y="370" />
            </Array>
          </mxGeometry>
        </mxCell>
        <mxCell id="ezjURIExCmXeSgJhfd-B-17" value="" style="endArrow=classic;html=1;rounded=0;hachureGap=4;fontFamily=Helvetica;flowAnimation=1;entryX=1.091;entryY=0.414;entryDx=0;entryDy=0;entryPerimeter=0;" edge="1" parent="1" target="ezjURIExCmXeSgJhfd-B-58">
          <mxGeometry width="50" height="50" relative="1" as="geometry">
            <mxPoint x="660" y="400" as="sourcePoint" />
            <mxPoint x="430" y="400" as="targetPoint" />
          </mxGeometry>
        </mxCell>
        <mxCell id="ezjURIExCmXeSgJhfd-B-18" value="" style="endArrow=classic;html=1;rounded=0;hachureGap=4;fontFamily=Helvetica;flowAnimation=1;entryX=1.136;entryY=0.726;entryDx=0;entryDy=0;entryPerimeter=0;" edge="1" parent="1" target="ezjURIExCmXeSgJhfd-B-58">
          <mxGeometry width="50" height="50" relative="1" as="geometry">
            <mxPoint x="430" y="440" as="sourcePoint" />
            <mxPoint x="430" y="490" as="targetPoint" />
            <Array as="points">
              <mxPoint x="500" y="440" />
              <mxPoint x="500" y="490" />
            </Array>
          </mxGeometry>
        </mxCell>
        <mxCell id="ezjURIExCmXeSgJhfd-B-19" value="" style="endArrow=classic;html=1;rounded=0;hachureGap=4;fontFamily=Helvetica;flowAnimation=1;" edge="1" parent="1">
          <mxGeometry width="50" height="50" relative="1" as="geometry">
            <mxPoint x="430" y="530" as="sourcePoint" />
            <mxPoint x="640" y="530" as="targetPoint" />
          </mxGeometry>
        </mxCell>
        <mxCell id="ezjURIExCmXeSgJhfd-B-20" value="" style="endArrow=classic;html=1;rounded=0;hachureGap=4;fontFamily=Helvetica;flowAnimation=1;entryX=-0.136;entryY=0.966;entryDx=0;entryDy=0;entryPerimeter=0;" edge="1" parent="1" target="ezjURIExCmXeSgJhfd-B-58">
          <mxGeometry width="50" height="50" relative="1" as="geometry">
            <mxPoint x="190" y="560" as="sourcePoint" />
            <mxPoint x="430" y="560" as="targetPoint" />
          </mxGeometry>
        </mxCell>
        <mxCell id="ezjURIExCmXeSgJhfd-B-21" value="" style="endArrow=classic;html=1;rounded=0;hachureGap=4;fontFamily=Helvetica;flowAnimation=1;entryX=-0.083;entryY=0.115;entryDx=0;entryDy=0;entryPerimeter=0;" edge="1" parent="1" target="ezjURIExCmXeSgJhfd-B-69">
          <mxGeometry width="50" height="50" relative="1" as="geometry">
            <mxPoint x="190" y="600" as="sourcePoint" />
            <mxPoint x="660" y="600" as="targetPoint" />
          </mxGeometry>
        </mxCell>
        <mxCell id="ezjURIExCmXeSgJhfd-B-22" value="" style="endArrow=classic;html=1;rounded=0;hachureGap=4;fontFamily=Helvetica;flowAnimation=1;" edge="1" parent="1">
          <mxGeometry width="50" height="50" relative="1" as="geometry">
            <mxPoint x="660" y="620" as="sourcePoint" />
            <mxPoint x="660" y="670" as="targetPoint" />
            <Array as="points">
              <mxPoint x="730" y="620" />
              <mxPoint x="730" y="670" />
            </Array>
          </mxGeometry>
        </mxCell>
        <mxCell id="ezjURIExCmXeSgJhfd-B-23" value="" style="endArrow=classic;html=1;rounded=0;hachureGap=4;fontFamily=Helvetica;flowAnimation=1;entryX=1.136;entryY=0.85;entryDx=0;entryDy=0;entryPerimeter=0;" edge="1" parent="1" target="ezjURIExCmXeSgJhfd-B-54">
          <mxGeometry width="50" height="50" relative="1" as="geometry">
            <mxPoint x="654" y="700" as="sourcePoint" />
            <mxPoint x="184" y="700" as="targetPoint" />
          </mxGeometry>
        </mxCell>
        <mxCell id="ezjURIExCmXeSgJhfd-B-24" value="" style="endArrow=classic;html=1;rounded=0;hachureGap=4;fontFamily=Helvetica;flowAnimation=1;" edge="1" parent="1">
          <mxGeometry width="50" height="50" relative="1" as="geometry">
            <mxPoint x="430" y="730" as="sourcePoint" />
            <mxPoint x="430" y="780" as="targetPoint" />
            <Array as="points">
              <mxPoint x="500" y="730" />
              <mxPoint x="500" y="780" />
            </Array>
          </mxGeometry>
        </mxCell>
        <mxCell id="ezjURIExCmXeSgJhfd-B-25" value="" style="endArrow=classic;html=1;rounded=0;hachureGap=4;fontFamily=Helvetica;flowAnimation=1;entryX=-0.159;entryY=0.129;entryDx=0;entryDy=0;entryPerimeter=0;" edge="1" parent="1" target="ezjURIExCmXeSgJhfd-B-73">
          <mxGeometry width="50" height="50" relative="1" as="geometry">
            <mxPoint x="184" y="810" as="sourcePoint" />
            <mxPoint x="654" y="810" as="targetPoint" />
          </mxGeometry>
        </mxCell>
        <mxCell id="ezjURIExCmXeSgJhfd-B-26" value="" style="endArrow=classic;html=1;rounded=0;hachureGap=4;fontFamily=Helvetica;flowAnimation=1;entryX=1.091;entryY=0.417;entryDx=0;entryDy=0;entryPerimeter=0;" edge="1" parent="1" target="ezjURIExCmXeSgJhfd-B-73">
          <mxGeometry width="50" height="50" relative="1" as="geometry">
            <mxPoint x="660" y="830" as="sourcePoint" />
            <mxPoint x="660" y="880" as="targetPoint" />
            <Array as="points">
              <mxPoint x="730" y="830" />
              <mxPoint x="730" y="880" />
            </Array>
          </mxGeometry>
        </mxCell>
        <mxCell id="ezjURIExCmXeSgJhfd-B-27" value="" style="endArrow=classic;html=1;rounded=0;hachureGap=4;fontFamily=Helvetica;flowAnimation=1;entryX=-0.159;entryY=0.588;entryDx=0;entryDy=0;entryPerimeter=0;" edge="1" parent="1" target="ezjURIExCmXeSgJhfd-B-73">
          <mxGeometry width="50" height="50" relative="1" as="geometry">
            <mxPoint x="430" y="920" as="sourcePoint" />
            <mxPoint x="660" y="920" as="targetPoint" />
          </mxGeometry>
        </mxCell>
        <mxCell id="ezjURIExCmXeSgJhfd-B-29" value="" style="endArrow=classic;html=1;rounded=0;hachureGap=4;fontFamily=Helvetica;flowAnimation=1;entryX=1;entryY=0.5;entryDx=0;entryDy=0;" edge="1" parent="1" target="ezjURIExCmXeSgJhfd-B-62">
          <mxGeometry width="50" height="50" relative="1" as="geometry">
            <mxPoint x="660" y="960" as="sourcePoint" />
            <mxPoint x="430" y="960" as="targetPoint" />
          </mxGeometry>
        </mxCell>
        <mxCell id="ezjURIExCmXeSgJhfd-B-30" value="" style="endArrow=classic;html=1;rounded=0;hachureGap=4;fontFamily=Helvetica;flowAnimation=1;entryX=-0.008;entryY=0.914;entryDx=0;entryDy=0;entryPerimeter=0;" edge="1" parent="1" target="ezjURIExCmXeSgJhfd-B-73">
          <mxGeometry width="50" height="50" relative="1" as="geometry">
            <mxPoint x="430" y="1000" as="sourcePoint" />
            <mxPoint x="660" y="1000" as="targetPoint" />
          </mxGeometry>
        </mxCell>
        <mxCell id="ezjURIExCmXeSgJhfd-B-31" value="&lt;div&gt;&lt;font&gt;1、发送生成二维码请求&lt;/font&gt;&lt;/div&gt;" style="text;html=1;align=center;verticalAlign=middle;resizable=0;points=[];autosize=1;strokeColor=none;fillColor=none;fontFamily=Helvetica;" vertex="1" parent="1">
          <mxGeometry x="468" y="278" width="150" height="30" as="geometry" />
        </mxCell>
        <mxCell id="ezjURIExCmXeSgJhfd-B-32" value="&lt;div&gt;&lt;font&gt;2、生成二维码&lt;/font&gt;&lt;/div&gt;" style="text;html=1;align=center;verticalAlign=middle;resizable=0;points=[];autosize=1;strokeColor=none;fillColor=none;fontFamily=Helvetica;" vertex="1" parent="1">
          <mxGeometry x="665" y="330" width="100" height="30" as="geometry" />
        </mxCell>
        <mxCell id="ezjURIExCmXeSgJhfd-B-33" value="&lt;div&gt;3、&lt;span style=&quot;background-color: initial;&quot;&gt;返回二&lt;/span&gt;&lt;span style=&quot;background-color: initial;&quot;&gt;维码ID&lt;/span&gt;&lt;/div&gt;" style="text;html=1;align=center;verticalAlign=middle;resizable=0;points=[];autosize=1;strokeColor=none;fillColor=none;fontFamily=Helvetica;" vertex="1" parent="1">
          <mxGeometry x="488" y="380" width="110" height="30" as="geometry" />
        </mxCell>
        <mxCell id="ezjURIExCmXeSgJhfd-B-34" value="4、展示二维码" style="text;html=1;align=center;verticalAlign=middle;resizable=0;points=[];autosize=1;strokeColor=none;fillColor=none;fontFamily=Helvetica;" vertex="1" parent="1">
          <mxGeometry x="494" y="450" width="100" height="30" as="geometry" />
        </mxCell>
        <mxCell id="ezjURIExCmXeSgJhfd-B-35" value="5、定时轮询二维码状态,直到登录成功" style="text;html=1;align=center;verticalAlign=middle;resizable=0;points=[];autosize=1;strokeColor=none;fillColor=none;fontFamily=Helvetica;" vertex="1" parent="1">
          <mxGeometry x="430" y="510" width="230" height="30" as="geometry" />
        </mxCell>
        <mxCell id="ezjURIExCmXeSgJhfd-B-36" value="6、扫描二维码，获取二维码ID" style="text;html=1;align=center;verticalAlign=middle;resizable=0;points=[];autosize=1;strokeColor=none;fillColor=none;fontFamily=Helvetica;" vertex="1" parent="1">
          <mxGeometry x="205" y="540" width="190" height="30" as="geometry" />
        </mxCell>
        <mxCell id="ezjURIExCmXeSgJhfd-B-37" value="&lt;div&gt;7、将手机端的身份信息（token），二维&lt;span style=&quot;background-color: initial;&quot;&gt;码信息发送给服务端&lt;/span&gt;&lt;/div&gt;" style="text;html=1;align=center;verticalAlign=middle;resizable=0;points=[];autosize=1;strokeColor=none;fillColor=none;fontFamily=Helvetica;" vertex="1" parent="1">
          <mxGeometry x="259" y="578" width="340" height="30" as="geometry" />
        </mxCell>
        <mxCell id="ezjURIExCmXeSgJhfd-B-39" value="9、返回临时token" style="text;html=1;align=center;verticalAlign=middle;resizable=0;points=[];autosize=1;strokeColor=none;fillColor=none;fontFamily=Helvetica;" vertex="1" parent="1">
          <mxGeometry x="374" y="680" width="120" height="30" as="geometry" />
        </mxCell>
        <mxCell id="ezjURIExCmXeSgJhfd-B-40" value="&lt;div&gt;10、轮询获取二维码状态,将&lt;/div&gt;&lt;div&gt;二维码状态更新为待确认&lt;/div&gt;" style="text;html=1;align=center;verticalAlign=middle;resizable=0;points=[];autosize=1;strokeColor=none;fillColor=none;fontFamily=Helvetica;" vertex="1" parent="1">
          <mxGeometry x="490" y="740" width="170" height="40" as="geometry" />
        </mxCell>
        <mxCell id="ezjURIExCmXeSgJhfd-B-42" value="11、携带临时token，确认登录" style="text;html=1;align=center;verticalAlign=middle;resizable=0;points=[];autosize=1;strokeColor=none;fillColor=none;fontFamily=Helvetica;" vertex="1" parent="1">
          <mxGeometry x="300" y="790" width="190" height="30" as="geometry" />
        </mxCell>
        <mxCell id="ezjURIExCmXeSgJhfd-B-44" value="&lt;div&gt;13、轮询二维码状态：&lt;span style=&quot;background-color: initial;&quot;&gt;已确认&lt;/span&gt;&lt;/div&gt;" style="text;html=1;align=center;verticalAlign=middle;resizable=0;points=[];autosize=1;strokeColor=none;fillColor=none;fontFamily=Helvetica;" vertex="1" parent="1">
          <mxGeometry x="450" y="900" width="180" height="30" as="geometry" />
        </mxCell>
        <mxCell id="ezjURIExCmXeSgJhfd-B-45" value="14、返回二维码状态和PC端token" style="text;html=1;align=center;verticalAlign=middle;resizable=0;points=[];autosize=1;strokeColor=none;fillColor=none;fontFamily=Helvetica;" vertex="1" parent="1">
          <mxGeometry x="444" y="938" width="200" height="30" as="geometry" />
        </mxCell>
        <mxCell id="ezjURIExCmXeSgJhfd-B-46" value="15、凭借token访问服务端API" style="text;html=1;align=center;verticalAlign=middle;resizable=0;points=[];autosize=1;strokeColor=none;fillColor=none;fontFamily=Helvetica;" vertex="1" parent="1">
          <mxGeometry x="453" y="980" width="180" height="30" as="geometry" />
        </mxCell>
        <mxCell id="ezjURIExCmXeSgJhfd-B-47" value="&lt;div style=&quot;font-size: 11px;&quot;&gt;&lt;font style=&quot;font-size: 11px;&quot;&gt;12、生成pc端token&lt;br&gt;更改二维码状态&lt;/font&gt;&lt;/div&gt;&lt;div style=&quot;font-size: 11px;&quot;&gt;&lt;font style=&quot;font-size: 11px;&quot;&gt;已确认&lt;/font&gt;&lt;/div&gt;&lt;div style=&quot;font-size: 11px;&quot;&gt;&lt;br&gt;&lt;/div&gt;" style="text;html=1;align=center;verticalAlign=middle;resizable=0;points=[];autosize=1;strokeColor=none;fillColor=none;fontFamily=Helvetica;" vertex="1" parent="1">
          <mxGeometry x="660" y="830" width="120" height="70" as="geometry" />
        </mxCell>
        <mxCell id="ezjURIExCmXeSgJhfd-B-48" value="&lt;div style=&quot;font-size: 11px;&quot;&gt;8、生成临时token&lt;br&gt;&lt;span style=&quot;background-color: initial;&quot;&gt;二维码ID与身份&lt;/span&gt;&lt;/div&gt;&lt;div style=&quot;font-size: 11px;&quot;&gt;&lt;span style=&quot;background-color: initial;&quot;&gt;信息绑&lt;/span&gt;&lt;span style=&quot;background-color: initial;&quot;&gt;定&lt;/span&gt;&lt;/div&gt;" style="text;html=1;align=center;verticalAlign=middle;resizable=0;points=[];autosize=1;strokeColor=none;fillColor=none;fontFamily=Helvetica;" vertex="1" parent="1">
          <mxGeometry x="660" y="620" width="110" height="50" as="geometry" />
        </mxCell>
        <mxCell id="ezjURIExCmXeSgJhfd-B-50" value="手机端" style="text;html=1;align=center;verticalAlign=middle;whiteSpace=wrap;rounded=0;fontFamily=Helvetica;" vertex="1" parent="1">
          <mxGeometry x="153" y="135" width="60" height="30" as="geometry" />
        </mxCell>
        <mxCell id="ezjURIExCmXeSgJhfd-B-51" value="PC端" style="text;html=1;align=center;verticalAlign=middle;resizable=0;points=[];autosize=1;strokeColor=none;fillColor=none;fontFamily=Helvetica;" vertex="1" parent="1">
          <mxGeometry x="403" y="135" width="50" height="30" as="geometry" />
        </mxCell>
        <mxCell id="ezjURIExCmXeSgJhfd-B-52" value="服务端" style="text;html=1;align=center;verticalAlign=middle;resizable=0;points=[];autosize=1;strokeColor=none;fillColor=none;fontFamily=Helvetica;" vertex="1" parent="1">
          <mxGeometry x="630" y="135" width="60" height="30" as="geometry" />
        </mxCell>
        <mxCell id="ezjURIExCmXeSgJhfd-B-55" value="" style="endArrow=none;html=1;rounded=0;hachureGap=4;fontFamily=Helvetica;entryX=0.5;entryY=1;entryDx=0;entryDy=0;entryPerimeter=0;" edge="1" parent="1" source="ezjURIExCmXeSgJhfd-B-56" target="ezjURIExCmXeSgJhfd-B-54">
          <mxGeometry width="50" height="50" relative="1" as="geometry">
            <mxPoint x="180" y="1040" as="sourcePoint" />
            <mxPoint x="183" y="230" as="targetPoint" />
          </mxGeometry>
        </mxCell>
        <mxCell id="ezjURIExCmXeSgJhfd-B-54" value="" style="rounded=0;whiteSpace=wrap;html=1;hachureGap=4;fontFamily=Architects Daughter;fontSource=https%3A%2F%2Ffonts.googleapis.com%2Fcss%3Ffamily%3DArchitects%2BDaughter;fillColor=#d5e8d4;strokeColor=#82b366;" vertex="1" parent="1">
          <mxGeometry x="168" y="530" width="22" height="200" as="geometry" />
        </mxCell>
        <mxCell id="ezjURIExCmXeSgJhfd-B-57" value="" style="endArrow=none;html=1;rounded=0;hachureGap=4;fontFamily=Helvetica;entryX=0.5;entryY=1;entryDx=0;entryDy=0;entryPerimeter=0;" edge="1" parent="1" target="ezjURIExCmXeSgJhfd-B-56">
          <mxGeometry width="50" height="50" relative="1" as="geometry">
            <mxPoint x="180" y="1040" as="sourcePoint" />
            <mxPoint x="179" y="730" as="targetPoint" />
          </mxGeometry>
        </mxCell>
        <mxCell id="ezjURIExCmXeSgJhfd-B-56" value="" style="rounded=0;whiteSpace=wrap;html=1;hachureGap=4;fontFamily=Architects Daughter;fontSource=https%3A%2F%2Ffonts.googleapis.com%2Fcss%3Ffamily%3DArchitects%2BDaughter;fillColor=#d5e8d4;strokeColor=#82b366;" vertex="1" parent="1">
          <mxGeometry x="168" y="770" width="22" height="80" as="geometry" />
        </mxCell>
        <mxCell id="ezjURIExCmXeSgJhfd-B-59" value="" style="endArrow=none;html=1;rounded=0;hachureGap=4;fontFamily=Helvetica;entryX=0.5;entryY=1;entryDx=0;entryDy=0;entryPerimeter=0;" edge="1" parent="1" source="ezjURIExCmXeSgJhfd-B-60" target="ezjURIExCmXeSgJhfd-B-58">
          <mxGeometry width="50" height="50" relative="1" as="geometry">
            <mxPoint x="428" y="1040" as="sourcePoint" />
            <mxPoint x="430.5" y="230" as="targetPoint" />
          </mxGeometry>
        </mxCell>
        <mxCell id="ezjURIExCmXeSgJhfd-B-58" value="" style="rounded=0;whiteSpace=wrap;html=1;hachureGap=4;fontFamily=Architects Daughter;fontSource=https%3A%2F%2Ffonts.googleapis.com%2Fcss%3Ffamily%3DArchitects%2BDaughter;fillColor=#dae8fc;strokeColor=#6c8ebf;" vertex="1" parent="1">
          <mxGeometry x="418" y="278" width="22" height="292" as="geometry" />
        </mxCell>
        <mxCell id="ezjURIExCmXeSgJhfd-B-61" value="" style="endArrow=none;html=1;rounded=0;hachureGap=4;fontFamily=Helvetica;entryX=0.5;entryY=1;entryDx=0;entryDy=0;entryPerimeter=0;" edge="1" parent="1" source="ezjURIExCmXeSgJhfd-B-62" target="ezjURIExCmXeSgJhfd-B-60">
          <mxGeometry width="50" height="50" relative="1" as="geometry">
            <mxPoint x="428" y="1040" as="sourcePoint" />
            <mxPoint x="429" y="570" as="targetPoint" />
          </mxGeometry>
        </mxCell>
        <mxCell id="ezjURIExCmXeSgJhfd-B-60" value="" style="rounded=0;whiteSpace=wrap;html=1;hachureGap=4;fontFamily=Architects Daughter;fontSource=https%3A%2F%2Ffonts.googleapis.com%2Fcss%3Ffamily%3DArchitects%2BDaughter;fillColor=#dae8fc;strokeColor=#6c8ebf;" vertex="1" parent="1">
          <mxGeometry x="420" y="724" width="20" height="66" as="geometry" />
        </mxCell>
        <mxCell id="ezjURIExCmXeSgJhfd-B-63" value="" style="endArrow=none;html=1;rounded=0;hachureGap=4;fontFamily=Helvetica;entryX=0.5;entryY=1;entryDx=0;entryDy=0;entryPerimeter=0;" edge="1" parent="1" target="ezjURIExCmXeSgJhfd-B-62">
          <mxGeometry width="50" height="50" relative="1" as="geometry">
            <mxPoint x="428" y="1040" as="sourcePoint" />
            <mxPoint x="430" y="790" as="targetPoint" />
          </mxGeometry>
        </mxCell>
        <mxCell id="ezjURIExCmXeSgJhfd-B-62" value="" style="rounded=0;whiteSpace=wrap;html=1;hachureGap=4;fontFamily=Architects Daughter;fontSource=https%3A%2F%2Ffonts.googleapis.com%2Fcss%3Ffamily%3DArchitects%2BDaughter;fillColor=#dae8fc;strokeColor=#6c8ebf;" vertex="1" parent="1">
          <mxGeometry x="417" y="900" width="22" height="122" as="geometry" />
        </mxCell>
        <mxCell id="ezjURIExCmXeSgJhfd-B-66" value="" style="endArrow=none;html=1;rounded=0;hachureGap=4;fontFamily=Helvetica;entryX=0.5;entryY=1;entryDx=0;entryDy=0;entryPerimeter=0;" edge="1" parent="1" source="ezjURIExCmXeSgJhfd-B-67" target="ezjURIExCmXeSgJhfd-B-65">
          <mxGeometry width="50" height="50" relative="1" as="geometry">
            <mxPoint x="659" y="1040" as="sourcePoint" />
            <mxPoint x="661.5" y="240" as="targetPoint" />
          </mxGeometry>
        </mxCell>
        <mxCell id="ezjURIExCmXeSgJhfd-B-65" value="" style="rounded=0;whiteSpace=wrap;html=1;hachureGap=4;fontFamily=Architects Daughter;fontSource=https%3A%2F%2Ffonts.googleapis.com%2Fcss%3Ffamily%3DArchitects%2BDaughter;fillColor=#f8cecc;strokeColor=#b85450;" vertex="1" parent="1">
          <mxGeometry x="650" y="280" width="22" height="100" as="geometry" />
        </mxCell>
        <mxCell id="ezjURIExCmXeSgJhfd-B-68" value="" style="endArrow=none;html=1;rounded=0;hachureGap=4;fontFamily=Helvetica;entryX=0.5;entryY=1;entryDx=0;entryDy=0;entryPerimeter=0;" edge="1" parent="1" source="ezjURIExCmXeSgJhfd-B-69" target="ezjURIExCmXeSgJhfd-B-67">
          <mxGeometry width="50" height="50" relative="1" as="geometry">
            <mxPoint x="659" y="1040" as="sourcePoint" />
            <mxPoint x="661" y="380" as="targetPoint" />
          </mxGeometry>
        </mxCell>
        <mxCell id="ezjURIExCmXeSgJhfd-B-67" value="" style="rounded=0;whiteSpace=wrap;html=1;hachureGap=4;fontFamily=Architects Daughter;fontSource=https%3A%2F%2Ffonts.googleapis.com%2Fcss%3Ffamily%3DArchitects%2BDaughter;fillColor=#f8cecc;strokeColor=#b85450;" vertex="1" parent="1">
          <mxGeometry x="649" y="495" width="22" height="60" as="geometry" />
        </mxCell>
        <mxCell id="ezjURIExCmXeSgJhfd-B-72" value="" style="endArrow=none;html=1;rounded=0;hachureGap=4;fontFamily=Helvetica;entryX=0.5;entryY=1;entryDx=0;entryDy=0;entryPerimeter=0;" edge="1" parent="1" source="ezjURIExCmXeSgJhfd-B-73" target="ezjURIExCmXeSgJhfd-B-69">
          <mxGeometry width="50" height="50" relative="1" as="geometry">
            <mxPoint x="659" y="1040" as="sourcePoint" />
            <mxPoint x="660" y="555" as="targetPoint" />
          </mxGeometry>
        </mxCell>
        <mxCell id="ezjURIExCmXeSgJhfd-B-69" value="" style="rounded=0;whiteSpace=wrap;html=1;hachureGap=4;fontFamily=Architects Daughter;fontSource=https%3A%2F%2Ffonts.googleapis.com%2Fcss%3Ffamily%3DArchitects%2BDaughter;fillColor=#f8cecc;strokeColor=#b85450;" vertex="1" parent="1">
          <mxGeometry x="649" y="585" width="22" height="125" as="geometry" />
        </mxCell>
        <mxCell id="ezjURIExCmXeSgJhfd-B-75" value="" style="endArrow=none;html=1;rounded=0;hachureGap=4;fontFamily=Helvetica;entryX=0.5;entryY=1;entryDx=0;entryDy=0;entryPerimeter=0;" edge="1" parent="1" target="ezjURIExCmXeSgJhfd-B-73">
          <mxGeometry width="50" height="50" relative="1" as="geometry">
            <mxPoint x="659" y="1040" as="sourcePoint" />
            <mxPoint x="660" y="710" as="targetPoint" />
          </mxGeometry>
        </mxCell>
        <mxCell id="ezjURIExCmXeSgJhfd-B-73" value="" style="rounded=0;whiteSpace=wrap;html=1;hachureGap=4;fontFamily=Architects Daughter;fontSource=https%3A%2F%2Ffonts.googleapis.com%2Fcss%3Ffamily%3DArchitects%2BDaughter;fillColor=#f8cecc;strokeColor=#b85450;" vertex="1" parent="1">
          <mxGeometry x="649" y="780" width="22" height="240" as="geometry" />
        </mxCell>
      </root>
    </mxGraphModel>
  </diagram>
</mxfile>
